<svg width="194" height="24" viewBox="0 0 194 24" fill="none" xmlns="http://www.w3.org/2000/svg">
<path d="M9.752 0.952C12.376 0.952 14.36 1.528 15.704 2.68C17.048 3.832 17.72 5.38933 17.72 7.352C17.72 9.31467 16.8133 10.8507 15 11.96C13.4213 12.9413 11.3093 13.432 8.664 13.432H5.976V22.008H8.952V23H0.056V22.008H3.064V1.944H0.056V0.952H9.752ZM12.632 11.384C13.848 10.4667 14.4347 9.09067 14.392 7.256C14.3493 5.42133 13.9227 4.07733 13.112 3.224C12.3227 2.37067 11.0747 1.944 9.368 1.944H5.976V12.568H8.728C10.328 12.568 11.6293 12.1733 12.632 11.384ZM41.511 0.855999V1.848C40.2523 1.848 39.5163 1.95467 39.303 2.168C38.7697 2.70133 38.503 3.53333 38.503 4.664V14.072C38.503 17.4853 37.9163 19.9067 36.743 21.336C35.5697 22.7653 33.4257 23.48 30.311 23.48C27.7937 23.48 25.831 22.7227 24.423 21.208C23.0363 19.672 22.343 17.9333 22.343 15.992V1.848H19.399V0.855999H28.199V1.848H25.191V15.864C25.191 20.3013 27.207 22.52 31.239 22.52C35.3777 22.52 37.447 20.0453 37.447 15.096V4.664C37.447 3.49067 37.1697 2.648 36.615 2.136C36.4017 1.944 35.687 1.848 34.471 1.848V0.855999H41.511ZM62.6653 17.464C62.6226 21.1547 60.0946 23 55.0813 23H43.9453V22.008H46.9533V1.944H43.9453V0.952H55.1453C57.1719 0.952 58.7613 1.44267 59.9132 2.424C61.0866 3.40533 61.6733 4.664 61.6733 6.2C61.6733 7.736 61.2039 8.97333 60.2653 9.912C59.3266 10.8507 58.1213 11.448 56.6493 11.704C58.0573 11.7253 59.3479 12.1627 60.5213 13.016C61.9933 14.0827 62.7079 15.5653 62.6653 17.464ZM58.5053 6.392C58.5053 3.42666 57.1933 1.944 54.5693 1.944H49.8653V11.32H54.0573C55.0813 11.32 56.0199 10.9787 56.8733 10.296C57.9613 9.4 58.5053 8.09867 58.5053 6.392ZM57.4493 21.176C58.6013 20.408 59.1666 19.128 59.1453 17.336C59.1239 15.5227 58.5266 14.168 57.3533 13.272C56.4786 12.6107 55.3906 12.28 54.0893 12.28H49.8653V22.008H54.3453C55.5613 22.008 56.5959 21.7307 57.4493 21.176ZM85.829 14.328V15.352H84.741V21.88C84.293 22.008 83.6637 22.2107 82.853 22.488C82.0423 22.744 81.5623 22.8933 81.413 22.936C80.005 23.2773 78.4157 23.448 76.645 23.448C73.9783 23.448 71.653 22.3387 69.669 20.12C67.7917 17.8587 66.8637 15.0853 66.885 11.8C66.9063 8.49333 67.8663 5.752 69.765 3.576C71.6423 1.50666 73.9357 0.471998 76.645 0.471998C78.4797 0.471998 79.9197 0.599998 80.965 0.855999C81.3917 0.941332 82.181 1.208 83.333 1.656V6.68H82.373C82.2237 4.824 81.7117 3.46933 80.837 2.616C79.9623 1.76267 78.6183 1.37867 76.805 1.464C72.645 1.72 70.565 5.21867 70.565 11.96C70.565 15.0107 71.109 17.496 72.197 19.416C73.285 21.3147 74.7357 22.2747 76.549 22.296C77.6157 22.3173 78.7783 22.0827 80.037 21.592C81.1463 21.208 81.7543 20.824 81.861 20.44C81.9677 20.2267 82.021 19.8 82.021 19.16V15.352H78.405V14.328H85.829ZM114.337 15.96C114.337 18.4347 113.345 20.3227 111.361 21.624C109.654 22.7547 107.51 23.32 104.929 23.32C103.372 23.32 101.633 22.9573 99.713 22.232L99.745 17.144H100.705C100.833 18.8293 101.334 20.0453 102.209 20.792C102.614 21.1333 103.212 21.4213 104.001 21.656C104.79 21.8907 105.505 21.9973 106.145 21.976C107.617 21.9547 108.908 21.56 110.017 20.792C111.105 20.0027 111.67 18.9467 111.713 17.624C111.713 16.2373 111.222 15.128 110.241 14.296C109.281 13.464 107.948 12.952 106.241 12.76C101.697 12.2053 99.425 10.3067 99.425 7.064C99.425 4.80267 100.289 3.08533 102.017 1.912C103.489 0.887999 105.281 0.375999 107.393 0.375999C108.012 0.375999 108.748 0.471999 109.601 0.664C110.454 0.834665 110.998 0.919998 111.233 0.919998C111.489 0.919998 111.66 0.759998 111.745 0.439999H112.641V6.168H111.681C111.532 4.58933 111.052 3.448 110.241 2.744C109.452 2.04 108.268 1.69867 106.689 1.72C103.574 1.76267 102.038 3.16 102.081 5.912C102.124 8.36533 103.83 9.76267 107.201 10.104C111.958 10.616 114.337 12.568 114.337 15.96ZM135.575 0.952L135.639 7.448H134.679C134.551 5.656 134.071 4.33333 133.239 3.48C132.407 2.60533 130.946 2.11467 128.855 2.008L127.383 1.944V22.008H130.391V23H121.495V22.008H124.471V1.944L123.031 2.008C120.962 2.09333 119.511 2.552 118.679 3.384C117.869 4.19467 117.367 5.54933 117.175 7.448H116.247L116.311 0.952H135.575ZM157.7 22.008V23H149.38V22.008H151.94L149.764 15.704H142.052L140.836 18.584C140.452 19.5653 140.26 20.2907 140.26 20.76C140.26 21.208 140.324 21.528 140.452 21.72C140.58 21.912 141.252 22.008 142.468 22.008V23H135.492V22.008C136.601 22.0293 137.401 21.8907 137.892 21.592C138.404 21.272 138.959 20.2693 139.556 18.584L146.5 0.344H147.78L155.332 22.008H157.7ZM142.5 14.488H149.316L146.148 5.112L142.5 14.488ZM177.075 0.952L177.139 7.448H176.179C176.051 5.656 175.571 4.33333 174.739 3.48C173.907 2.60533 172.446 2.11467 170.355 2.008L168.883 1.944V22.008H171.891V23H162.995V22.008H165.971V1.944L164.531 2.008C162.462 2.09333 161.011 2.552 160.179 3.384C159.369 4.19467 158.867 5.54933 158.675 7.448H157.747L157.811 0.952H177.075ZM193.618 15.96C193.618 18.4347 192.626 20.3227 190.642 21.624C188.936 22.7547 186.792 23.32 184.21 23.32C182.653 23.32 180.914 22.9573 178.994 22.232L179.026 17.144H179.986C180.114 18.8293 180.616 20.0453 181.49 20.792C181.896 21.1333 182.493 21.4213 183.282 21.656C184.072 21.8907 184.786 21.9973 185.426 21.976C186.898 21.9547 188.189 21.56 189.298 20.792C190.386 20.0027 190.952 18.9467 190.994 17.624C190.994 16.2373 190.504 15.128 189.522 14.296C188.562 13.464 187.229 12.952 185.522 12.76C180.978 12.2053 178.706 10.3067 178.706 7.064C178.706 4.80267 179.57 3.08533 181.298 1.912C182.77 0.887999 184.562 0.375999 186.674 0.375999C187.293 0.375999 188.029 0.471999 188.882 0.664C189.736 0.834665 190.28 0.919998 190.514 0.919998C190.77 0.919998 190.941 0.759998 191.026 0.439999H191.922V6.168H190.962C190.813 4.58933 190.333 3.448 189.522 2.744C188.733 2.04 187.549 1.69867 185.97 1.72C182.856 1.76267 181.32 3.16 181.362 5.912C181.405 8.36533 183.112 9.76267 186.482 10.104C191.24 10.616 193.618 12.568 193.618 15.96Z" fill="black"/>
</svg>
