<svg width="12" height="16" viewBox="0 0 12 16" fill="none" xmlns="http://www.w3.org/2000/svg">
<path d="M8 0.5C8 0.223857 7.77614 0 7.5 0H4.5C4.22386 0 4 0.223857 4 0.5C4 0.776142 3.77614 1 3.5 1C3.22386 1 3 1.22386 3 1.5V2C3 2.27614 3.22386 2.5 3.5 2.5H8.5C8.77614 2.5 9 2.27614 9 2V1.5C9 1.22386 8.77614 1 8.5 1C8.22386 1 8 0.776142 8 0.5Z" fill="black"/>
<path d="M2.08535 1H1.5C0.671573 1 0 1.67157 0 2.5V14.5C0 15.3284 0.671572 16 1.5 16H10.5C11.3284 16 12 15.3284 12 14.5V2.5C12 1.67157 11.3284 1 10.5 1H9.91465C9.96992 1.15639 10 1.32468 10 1.5V2C10 2.82843 9.32843 3.5 8.5 3.5H3.5C2.67157 3.5 2 2.82843 2 2V1.5C2 1.32468 2.03008 1.15639 2.08535 1ZM7.97891 5.35633L9.37201 10H9.5C9.77614 10 10 10.2239 10 10.5C10 10.7761 9.77614 11 9.5 11H9C8.7792 11 8.58453 10.8552 8.52109 10.6437L7.58078 7.50932L6.4889 12.6048C6.44107 12.828 6.24816 12.9904 6.02009 12.9996C5.79201 13.0088 5.58668 12.8623 5.52109 12.6437L4.38337 8.85129L3.44721 10.7236C3.36252 10.893 3.18939 11 3 11H2.5C2.22386 11 2 10.7761 2 10.5C2 10.2239 2.22386 10 2.5 10H2.69098L4.05279 7.27639C4.14446 7.09304 4.33876 6.98423 4.54299 7.00185C4.74723 7.01948 4.92001 7.15998 4.97891 7.35633L5.91922 10.4907L7.0111 5.39524C7.05893 5.17204 7.25184 5.00957 7.47991 5.0004C7.70799 4.99123 7.91332 5.13769 7.97891 5.35633Z" fill="black"/>
</svg>
